<svg xmlns="http://www.w3.org/2000/svg" width="138" height="22" fill="#100515"><path d="M9.948 17.122v-3.093H6.951v3.157c0 1.02-.574 1.754-1.754 1.754s-1.754-.733-1.754-1.722V4.783c0-.988.574-1.722 1.754-1.722s1.754.733 1.754 1.754V7.94h2.997V4.878C9.948 2.041 8.258 0 5.133 0 2.041 0 0 2.168 0 5.07v11.86C0 19.832 2.041 22 5.133 22c3.125 0 4.814-2.041 4.814-4.878zm17.441-.159V5.038C27.388 2.104 25.38 0 22.319 0s-5.07 2.104-5.07 5.038v11.925c0 2.965 2.009 5.038 5.07 5.038s5.07-2.072 5.07-5.038zm-3.412.255c0 1.02-.606 1.722-1.658 1.722s-1.658-.701-1.658-1.722V4.783c0-1.02.606-1.722 1.658-1.722s1.658.701 1.658 1.722v12.435zm21.075 4.4V11H40.11v2.551h1.658v3.794c0 .925-.574 1.69-1.722 1.69-1.116 0-1.722-.765-1.722-1.69V4.719c0-.893.574-1.658 1.69-1.658 1.148 0 1.69.733 1.69 1.626v3.029h3.188V4.878c0-2.71-1.754-4.878-4.878-4.878s-5.101 2.232-5.101 4.878v12.243c0 2.87 1.754 4.878 4.559 4.878 1.435 0 2.678-.606 3.252-1.817l.51 1.435h1.817zm18.015-.001V.383h-3.029v13.008l-1.084-3.284L55.638.383h-2.997v21.234h3.06V8.736l1.18 3.252 3.571 9.629zm11.319 0V.383h-3.38v21.234zm16.93-18.142V.383h-9.884v3.092h3.284v18.142h3.38V3.475zm10.426 18.142V.383h-3.38v21.234zm17.919-4.655V5.038c0-2.933-2.009-5.038-5.07-5.038s-5.07 2.104-5.07 5.038v11.925c0 2.965 2.009 5.038 5.07 5.038s5.07-2.072 5.07-5.038zm-3.412.255c0 1.02-.606 1.722-1.658 1.722s-1.658-.701-1.658-1.722V4.783c0-1.02.606-1.722 1.658-1.722s1.658.701 1.658 1.722v12.435zm21.554 4.4V.383h-3.029v13.008l-1.084-3.284-3.316-9.724h-2.997v21.234h3.061V8.736l1.179 3.252 3.571 9.629z"/></svg>