<svg xmlns="http://www.w3.org/2000/svg" xmlns:xlink="http://www.w3.org/1999/xlink" width="180" height="180"><g fill="none" fill-rule="evenodd"><path fill="#f3f3f3" d="M0 0h180v180H0z"/><g fill="#313131" fill-rule="nonzero"><path d="M28.75 80.202v-1.006h1.797v4.463H28.75v-1.016c-.762-1.146-1.803-1.719-3.125-1.719-.807 0-1.426.163-1.855.488s-.645.794-.645 1.406c0 .586.203 1.032.61 1.338s1.03.566 1.87.781l1.729.459c1.1.293 1.945.68 2.534 1.162s.973.993 1.152 1.533.269 1.143.269 1.807c0 1.335-.417 2.393-1.25 3.174s-1.95 1.172-3.35 1.172c-1.335 0-2.549-.488-3.643-1.465V94H21.21v-5.36h1.836v1.299c.879 1.615 2.025 2.422 3.438 2.422.827 0 1.468-.213 1.924-.64s.684-1.027.684-1.802c0-1.055-.742-1.787-2.227-2.197l-1.836-.518c-1.322-.378-2.298-.889-2.93-1.533s-.947-1.494-.947-2.549c0-1.296.382-2.3 1.147-3.013s1.821-1.069 3.169-1.069c1.172 0 2.266.387 3.281 1.162zm7.763.918l3.76 10 3.643-10h-1.7v-1.836h5.616v1.836h-1.758l-4.863 13.037H39.17L34.228 81.12h-1.816v-1.836h5.801v1.836zm25.362-.215v-1.621h1.875v4.834h-1.875c-.43-.944-1.108-1.699-2.036-2.266s-1.903-.85-2.925-.85c-1.016 0-1.921.239-2.715.718s-1.411 1.138-1.851 1.978-.659 1.794-.659 2.861c0 1.12.231 2.113.693 2.979a5.04 5.04 0 0 0 1.929 2.021c.824.482 1.763.723 2.817.723a5.62 5.62 0 0 0 2.231-.439 4.49 4.49 0 0 0 1.709-1.25c.452-.54.734-1.159.845-1.855h-2.705v-1.855h5.361v.479c0 1.4-.319 2.62-.957 3.662a6.29 6.29 0 0 1-2.642 2.393c-1.123.554-2.384.83-3.784.83-1.595 0-2.993-.321-4.194-.962s-2.122-1.538-2.764-2.69-.962-2.49-.962-4.014c0-1.452.321-2.751.962-3.896s1.525-2.039 2.651-2.681 2.402-.962 3.828-.962c2.018 0 3.74.622 5.166 1.865zm5.508 5.439v-2.607h2.607v2.607h-2.607zm0 7.656v-2.598h2.607V94h-2.607zm18.945-1.796v1.797h-5.947v-1.797h2.021V81.061h-2.021v-1.757h4.042v12.9z"/><use xlink:href="#B"/><path d="M116.64 85.544l1.856 2.021 1.728-2.021h-1.045v-1.807h4.844v1.807h-1.699l-2.705 3.076 3.262 3.584h1.142v1.797h-4.844v-1.797h1.319l-2.041-2.324-2.012 2.324h1.318v1.797h-4.961v-1.797h1.495l3.085-3.467-2.919-3.193h-1.407v-1.807h4.825v1.807zm16.758 6.66v1.797h-5.947v-1.797h2.021V81.061h-2.021v-1.757h4.043v12.9z"/><use xlink:href="#B" x="47.071"/></g><path stroke="#313131" stroke-opacity=".25" d="M0 0h180v180H0z"/></g><defs ><path id="B" d="M99.56 82.897c0 1.413-.726 2.549-2.178 3.408 1.758.69 2.637 1.901 2.637 3.633 0 .866-.202 1.623-.605 2.271s-.986 1.149-1.748 1.504-1.663.532-2.705.532c-1.53 0-2.785-.355-3.765-1.064s-1.47-1.79-1.47-3.242c0-1.732.872-2.943 2.617-3.633-1.439-.827-2.158-1.969-2.158-3.428 0-.827.21-1.53.63-2.109s.977-1.012 1.67-1.299 1.453-.43 2.28-.43c1.452 0 2.614.347 3.486 1.04s1.309 1.632 1.309 2.817zm-4.639 2.588c.697 0 1.312-.187 1.846-.562s.801-.968.801-1.782c0-.801-.228-1.392-.684-1.772s-1.149-.571-2.08-.571c-.827 0-1.473.203-1.938.61s-.698.972-.698 1.694c0 .775.243 1.366.728 1.772s1.16.61 2.026.61zm-.039 7.031c.853 0 1.563-.239 2.129-.718s.85-1.125.85-1.938c0-.801-.256-1.444-.767-1.929s-1.274-.728-2.29-.728c-.879 0-1.589.243-2.129.728s-.811 1.128-.811 1.929.277 1.444.83 1.929 1.283.728 2.188.728zm16.816-5.859c0 1.602-.207 2.972-.62 4.111s-.999 2.004-1.758 2.593-1.659.884-2.7.884c-1.654 0-2.92-.684-3.799-2.051s-1.318-3.213-1.318-5.537c0-1.608.207-2.983.62-4.126s1.006-2.01 1.777-2.603 1.678-.889 2.72-.889c1.628 0 2.881.68 3.76 2.041s1.318 3.219 1.318 5.576zm-5.078 5.859c.964 0 1.694-.456 2.192-1.367s.747-2.435.747-4.57c0-2.116-.257-3.615-.771-4.497s-1.243-1.323-2.187-1.323c-1.016 0-1.759.493-2.231 1.479s-.708 2.459-.708 4.419c0 2.057.247 3.548.742 4.473s1.234 1.387 2.217 1.387z"/></defs></svg>